# xmcd
# 
# Track frame offsets:
#     150
#     13410
#     34530
#     57530
#     73047
#     103377
#     133222
#     155532
#     175565
#     190750
# 
# Disc length: 2843
# 
# Revision: 4
# Processed by: cddbd v1.5.2PL0 Copyright (c) Steve Scherf et al.
# Submitted via: fre:ac v1.0.17
# 
DISCID=8e0b190a
DTITLE=John Lee Hooker - Mr. Lucky
DYEAR=1991
DGENRE=Blues
TTITLE0=I Want To Hug You
TTITLE1=Mr. Lucky
TTITLE2=Backstabbers
TTITLE3=This Is Hip
TTITLE4=I Cover The Waterfront
TTITLE5=Highway 13
TTITLE6=Stripped Me Naked
TTITLE7=Susie
TTITLE8=Crawlin' Kingsnake
TTITLE9=Father Was A Jockey
EXTD=YEAR: 1991
EXTT0=
EXTT1=
EXTT2=
EXTT3=
EXTT4=
EXTT5=
EXTT6=
EXTT7=
EXTT8=
EXTT9=
PLAYORDER=
